<svg width="52" height="50" viewBox="0 0 52 50" fill="none" xmlns="http://www.w3.org/2000/svg">
<rect x="2.5" y="3.08105" width="47" height="43.485" fill="black"/>
<rect x="2.5" y="3.08105" width="47" height="43.485" stroke="black" stroke-width="5" stroke-miterlimit="2.3662" stroke-linejoin="round"/>
<path d="M24.3298 23.8299C25.1897 22.9139 25.7448 21.7911 25.9291 20.5947C26.1134 19.3984 25.9192 18.1787 25.3696 17.0804C24.8199 15.9822 23.938 15.0515 22.8283 14.3988C21.7187 13.7461 20.428 13.3989 19.1094 13.3983H10.25C9.72786 13.3983 9.2271 13.5884 8.85788 13.9267C8.48867 14.265 8.28125 14.7239 8.28125 15.2023V34.4448C8.28125 34.9233 8.48867 35.3821 8.85788 35.7204C9.2271 36.0587 9.72786 36.2488 10.25 36.2488H19.7656C21.3447 36.2478 22.8837 35.793 24.1658 34.9483C25.448 34.1037 26.4087 32.9118 26.9127 31.5406C27.4166 30.1693 27.4385 28.6877 26.9751 27.3044C26.5118 25.9212 25.5866 24.7059 24.3298 23.8299ZM12.2188 17.0063H19.1094C19.8926 17.0063 20.6437 17.2914 21.1975 17.7989C21.7514 18.3063 22.0625 18.9946 22.0625 19.7123C22.0625 20.4299 21.7514 21.1182 21.1975 21.6257C20.6437 22.1332 19.8926 22.4182 19.1094 22.4182H12.2188V17.0063ZM19.7656 32.6408H12.2188V26.0262H19.7656C20.7229 26.0262 21.6409 26.3747 22.3178 26.9949C22.9947 27.6151 23.375 28.4564 23.375 29.3335C23.375 30.2107 22.9947 31.0519 22.3178 31.6722C21.6409 32.2924 20.7229 32.6408 19.7656 32.6408ZM30.5938 17.0063C30.5938 16.5278 30.8012 16.069 31.1704 15.7307C31.5396 15.3924 32.0404 15.2023 32.5625 15.2023H43.0625C43.5846 15.2023 44.0854 15.3924 44.4546 15.7307C44.8238 16.069 45.0312 16.5278 45.0312 17.0063C45.0312 17.4847 44.8238 17.9436 44.4546 18.2819C44.0854 18.6202 43.5846 18.8103 43.0625 18.8103H32.5625C32.0404 18.8103 31.5396 18.6202 31.1704 18.2819C30.8012 17.9436 30.5938 17.4847 30.5938 17.0063ZM37.8125 20.6143C35.5499 20.6143 33.3799 21.4379 31.78 22.9039C30.1801 24.3699 29.2813 26.3583 29.2812 28.4315C29.2813 30.5048 30.1801 32.4932 31.78 33.9592C33.3799 35.4252 35.5499 36.2488 37.8125 36.2488C39.1029 36.252 40.377 35.9841 41.5367 35.4656C41.7748 35.3652 41.9887 35.2223 42.1657 35.0453C42.3428 34.8682 42.4794 34.6605 42.5677 34.4344C42.656 34.2083 42.6942 33.9683 42.6799 33.7285C42.6657 33.4887 42.5993 33.2539 42.4847 33.038C42.3701 32.822 42.2097 32.6291 42.0127 32.4707C41.8157 32.3123 41.5862 32.1915 41.3376 32.1155C41.089 32.0394 40.8263 32.0096 40.565 32.0278C40.3036 32.046 40.0489 32.1118 39.8157 32.2214C39.1917 32.4995 38.5064 32.643 37.8125 32.6408C36.9434 32.64 36.0922 32.4136 35.3577 31.988C34.6231 31.5623 34.0351 30.9547 33.6617 30.2355H44.375C44.8971 30.2355 45.3979 30.0455 45.7671 29.7071C46.1363 29.3688 46.3438 28.91 46.3438 28.4315C46.3411 26.359 45.4415 24.372 43.8421 22.9065C42.2428 21.441 40.0743 20.6166 37.8125 20.6143ZM33.6617 26.6276C34.0342 25.9077 34.622 25.2995 35.3567 24.8736C36.0915 24.4477 36.9431 24.2217 37.8125 24.2217C38.6819 24.2217 39.5335 24.4477 40.2683 24.8736C41.003 25.2995 41.5908 25.9077 41.9633 26.6276H33.6617Z" fill="#FFF8E1"/>
</svg>
