<svg width="52" height="49" viewBox="0 0 52 49" fill="none" xmlns="http://www.w3.org/2000/svg">
<rect x="2.5" y="2.56006" width="47" height="43.485" fill="black"/>
<rect x="2.5" y="2.56006" width="47" height="43.485" stroke="black" stroke-width="5" stroke-linejoin="round"/>
<path d="M26 8.26715C16.34 8.26715 8.5 15.451 8.5 24.3026C8.5 33.1541 16.34 40.338 26 40.338H34.75V37.1309H26C18.405 37.1309 12 31.262 12 24.3026C12 17.3432 18.405 11.4742 26 11.4742C33.595 11.4742 40 17.3432 40 24.3026V26.5957C40 27.8624 38.7575 29.1132 37.375 29.1132C35.9925 29.1132 34.75 27.8624 34.75 26.5957V24.3026C34.75 19.8768 30.83 16.2849 26 16.2849C21.17 16.2849 17.25 19.8768 17.25 24.3026C17.25 28.7284 21.17 32.3203 26 32.3203C28.415 32.3203 30.62 31.4223 32.195 29.9631C33.3325 31.3902 35.2925 32.3203 37.375 32.3203C40.8225 32.3203 43.5 29.7546 43.5 26.5957V24.3026C43.5 15.451 35.66 8.26715 26 8.26715ZM26 29.1132C23.095 29.1132 20.75 26.9645 20.75 24.3026C20.75 21.6407 23.095 19.492 26 19.492C28.905 19.492 31.25 21.6407 31.25 24.3026C31.25 26.9645 28.905 29.1132 26 29.1132Z" fill="#FFF8E1"/>
</svg>
