<svg width="44" height="44" viewBox="0 0 44 44" fill="none" xmlns="http://www.w3.org/2000/svg">
<path d="M20.592 1.848C21.072 0.535998 22.928 0.535998 23.408 1.848L24.842 5.764C25.9666 8.83605 27.7476 11.6259 30.0608 13.9392C32.3741 16.2524 35.1639 18.0334 38.236 19.158L42.152 20.592C43.466 21.072 43.466 22.928 42.152 23.408L38.236 24.842C35.1639 25.9666 32.3741 27.7476 30.0608 30.0608C27.7476 32.3741 25.9666 35.164 24.842 38.236L23.408 42.152C22.928 43.466 21.072 43.466 20.592 42.152L19.158 38.236C18.0334 35.164 16.2524 32.3741 13.9392 30.0608C11.6259 27.7476 8.83605 25.9666 5.764 24.842L1.848 23.408C0.535998 22.928 0.535998 21.072 1.848 20.592L5.764 19.158C8.83605 18.0334 11.6259 16.2524 13.9392 13.9392C16.2524 11.6259 18.0334 8.83605 19.158 5.764L20.592 1.848Z" fill="black"/>
</svg>
