<svg width="52" height="49" viewBox="0 0 52 49" fill="none" xmlns="http://www.w3.org/2000/svg">
<rect x="2.5" y="2.67578" width="47" height="43.485" fill="black"/>
<rect x="2.5" y="2.67578" width="47" height="43.485" stroke="black" stroke-width="5" stroke-miterlimit="2.3662" stroke-linejoin="round"/>
<path d="M43.4352 35.4106C43.2016 36.3307 42.6505 37.1573 41.8637 37.7678C40.9854 38.5864 39.937 39.2354 38.7804 39.6766C37.6238 40.1178 36.3825 40.3423 35.1297 40.3367H34.5032C31.9029 40.2125 29.3542 39.6231 27.001 38.6017C26.4305 38.3563 25.8757 38.127 25.216 37.848C22.4581 36.4208 19.9268 34.6538 17.6927 32.5964C14.7887 30.1007 12.409 27.138 10.6717 23.8555C9.71533 22.0647 9.0711 20.1477 8.76249 18.1741C8.33133 16.1176 8.58624 13.9897 9.49399 12.0678C10.0586 11.1953 10.7498 10.397 11.5485 9.69458C11.9133 9.3299 12.3545 9.0362 12.8457 8.83097C13.337 8.62573 13.8683 8.51316 14.408 8.49994C14.9965 8.55694 15.5667 8.72105 16.085 8.98264C16.6034 9.24423 17.0596 9.59804 17.4267 10.0233C18.2492 10.8571 19.2117 11.6589 20.0867 12.5088L21.2137 13.5254C21.8787 14.0594 22.29 14.8115 22.3565 15.6197C22.3582 16.3637 22.059 17.0805 21.5165 17.6337C21.1749 18.0217 20.8116 18.3931 20.428 18.7466L20.0517 19.1074C19.8326 19.2939 19.6616 19.5229 19.5512 19.7777C19.4602 20.0246 19.4287 20.2876 19.4637 20.5474C19.7507 21.2593 20.2005 21.9072 20.785 22.446C21.695 23.5749 22.57 24.5578 23.5535 25.7204C25.2497 27.5137 27.2607 29.0349 29.5035 30.2215C29.7187 30.3819 29.976 30.4893 30.2525 30.5326C30.4975 30.5663 30.7442 30.5326 30.9665 30.4332C31.6479 30.099 32.2542 29.6495 32.7532 29.1087C33.3832 28.3967 34.2967 27.9445 35.2907 27.8467C35.7679 27.8483 36.2398 27.9376 36.6786 28.1091C37.1175 28.2807 37.5143 28.5312 37.8457 28.8457C38.2541 29.1685 38.6408 29.5122 39.006 29.8768L39.5415 30.4011L40.0962 30.8918C40.434 31.2029 40.756 31.4819 41.0762 31.809C41.6596 32.2687 42.2021 32.7653 42.7037 33.2987C43.2165 33.8985 43.4755 34.6489 43.4352 35.4106Z" fill="#FFF8E1"/>
</svg>
