<svg width="84" height="84" viewBox="0 0 84 84" fill="none" xmlns="http://www.w3.org/2000/svg">
<path d="M39.536 6.73399C40.376 4.43799 43.624 4.43799 44.464 6.73399L46.9735 13.587C48.9415 18.9631 52.0583 23.8453 56.1065 27.8935C60.1546 31.9417 65.0369 35.0584 70.413 37.0265L77.266 39.536C79.5655 40.376 79.5655 43.624 77.266 44.464L70.413 46.9735C65.0369 48.9416 60.1546 52.0583 56.1065 56.1065C52.0583 60.1546 48.9415 65.0369 46.9735 70.413L44.464 77.266C43.624 79.5655 40.376 79.5655 39.536 77.266L37.0265 70.413C35.0584 65.0369 31.9417 60.1546 27.8935 56.1065C23.8453 52.0583 18.9631 48.9416 13.587 46.9735L6.73399 44.464C4.43799 43.624 4.43799 40.376 6.73399 39.536L13.587 37.0265C18.9631 35.0584 23.8453 31.9417 27.8935 27.8935C31.9417 23.8453 35.0584 18.9631 37.0265 13.587L39.536 6.73399Z" fill="black"/>
</svg>
